<svg xmlns="http://www.w3.org/2000/svg" viewBox="0 0 100 100" width="100" height="100">
  <!-- Elegant sitting cat silhouette -->
  <g fill="#1a1a1a">
    <!-- Body -->
    <path d="M35,85 C25,85 20,75 20,65 C20,50 28,40 35,35 C38,32 40,28 40,22 L40,12 L35,4 C35,3 36,2 37,3 L44,12 L46,10 L50,2 C50,1 52,1 52,2 L52,12 C52,18 53,22 55,26 C58,30 68,36 72,48 C76,60 74,75 65,82 C60,86 50,87 45,86 Z"/>
    <!-- Tail -->
    <path d="M65,78 C72,72 82,68 86,60 C90,52 88,44 84,42 C80,40 78,44 78,48 C78,54 74,62 68,68 C64,72 62,76 62,80" fill="none" stroke="#1a1a1a" stroke-width="5" stroke-linecap="round"/>
    <!-- Left ear inner -->
    <path d="M38,13 L36,5 L43,13 Z" fill="#333"/>
    <!-- Right ear inner -->
    <path d="M50,11 L51,3 L53,12 Z" fill="#333"/>
    <!-- Eyes -->
    <ellipse cx="40" cy="22" rx="3" ry="2" fill="#8BC34A"/>
    <ellipse cx="50" cy="22" rx="3" ry="2" fill="#8BC34A"/>
    <ellipse cx="40" cy="22" rx="1.5" ry="2" fill="#111"/>
    <ellipse cx="50" cy="22" rx="1.5" ry="2" fill="#111"/>
    <!-- Nose -->
    <path d="M44,26 L45,27.5 L46,26 Z" fill="#e57373"/>
    <!-- Whiskers -->
    <line x1="44" y1="28" x2="28" y2="24" stroke="#555" stroke-width="0.8" stroke-linecap="round"/>
    <line x1="44" y1="29" x2="26" y2="29" stroke="#555" stroke-width="0.8" stroke-linecap="round"/>
    <line x1="44" y1="30" x2="28" y2="34" stroke="#555" stroke-width="0.8" stroke-linecap="round"/>
    <line x1="46" y1="28" x2="62" y2="24" stroke="#555" stroke-width="0.8" stroke-linecap="round"/>
    <line x1="46" y1="29" x2="64" y2="29" stroke="#555" stroke-width="0.8" stroke-linecap="round"/>
    <line x1="46" y1="30" x2="62" y2="34" stroke="#555" stroke-width="0.8" stroke-linecap="round"/>
    <!-- Front paws -->
    <ellipse cx="32" cy="84" rx="5" ry="3" fill="#1a1a1a"/>
    <ellipse cx="44" cy="84" rx="5" ry="3" fill="#1a1a1a"/>
  </g>
</svg>